<mxfile host="app.diagrams.net" agent="Mozilla/5.0 (Windows NT 10.0; Win64; x64) AppleWebKit/537.36 (KHTML, like Gecko) Chrome/136.0.0.0 Safari/537.36" version="26.0.16">
  <diagram name="第 1 页" id="iSzXC3v1bhS-CfN1lYBG">
    <mxGraphModel dx="819" dy="518" grid="1" gridSize="10" guides="1" tooltips="1" connect="1" arrows="1" fold="1" page="1" pageScale="1" pageWidth="827" pageHeight="1169" math="0" shadow="0">
      <root>
        <mxCell id="0" />
        <mxCell id="1" parent="0" />
        <mxCell id="ut37ZQ3Dius7RgOiMuSG-3" value="" style="shape=trapezoid;perimeter=trapezoidPerimeter;whiteSpace=wrap;html=1;fixedSize=1;size=8;rotation=-180;" vertex="1" parent="1">
          <mxGeometry x="323" y="160" width="182" height="30" as="geometry" />
        </mxCell>
        <mxCell id="ut37ZQ3Dius7RgOiMuSG-4" value="" style="shape=trapezoid;perimeter=trapezoidPerimeter;whiteSpace=wrap;html=1;fixedSize=1;size=8;rotation=-180;" vertex="1" parent="1">
          <mxGeometry x="337" y="210" width="154" height="30" as="geometry" />
        </mxCell>
        <mxCell id="ut37ZQ3Dius7RgOiMuSG-5" value="" style="shape=trapezoid;perimeter=trapezoidPerimeter;whiteSpace=wrap;html=1;fixedSize=1;size=8;rotation=-180;" vertex="1" parent="1">
          <mxGeometry x="353.5" y="260" width="121" height="30" as="geometry" />
        </mxCell>
        <mxCell id="ut37ZQ3Dius7RgOiMuSG-6" value="" style="shape=trapezoid;perimeter=trapezoidPerimeter;whiteSpace=wrap;html=1;fixedSize=1;size=8;rotation=-180;" vertex="1" parent="1">
          <mxGeometry x="380" y="310" width="74" height="30" as="geometry" />
        </mxCell>
        <mxCell id="ut37ZQ3Dius7RgOiMuSG-7" value="" style="triangle;whiteSpace=wrap;html=1;rotation=90;" vertex="1" parent="1">
          <mxGeometry x="390" y="347" width="60" height="80" as="geometry" />
        </mxCell>
        <mxCell id="ut37ZQ3Dius7RgOiMuSG-8" value="原始需求" style="text;html=1;align=center;verticalAlign=middle;whiteSpace=wrap;rounded=0;" vertex="1" parent="1">
          <mxGeometry x="380" y="160" width="60" height="30" as="geometry" />
        </mxCell>
        <mxCell id="ut37ZQ3Dius7RgOiMuSG-9" value="认为的需求" style="text;html=1;align=center;verticalAlign=middle;whiteSpace=wrap;rounded=0;" vertex="1" parent="1">
          <mxGeometry x="376" y="210" width="76" height="30" as="geometry" />
        </mxCell>
        <mxCell id="ut37ZQ3Dius7RgOiMuSG-10" value="表述的需求" style="text;html=1;align=center;verticalAlign=middle;whiteSpace=wrap;rounded=0;" vertex="1" parent="1">
          <mxGeometry x="384" y="260" width="66" height="30" as="geometry" />
        </mxCell>
        <mxCell id="ut37ZQ3Dius7RgOiMuSG-11" value="决策后的需求" style="text;html=1;align=center;verticalAlign=middle;whiteSpace=wrap;rounded=0;fontSize=7;" vertex="1" parent="1">
          <mxGeometry x="387" y="310" width="60" height="30" as="geometry" />
        </mxCell>
        <mxCell id="ut37ZQ3Dius7RgOiMuSG-12" value="技术分析&lt;div&gt;阶段&lt;/div&gt;" style="text;html=1;align=center;verticalAlign=middle;whiteSpace=wrap;rounded=0;fontSize=8;" vertex="1" parent="1">
          <mxGeometry x="390" y="364" width="60" height="30" as="geometry" />
        </mxCell>
        <mxCell id="ut37ZQ3Dius7RgOiMuSG-14" value="" style="curved=1;endArrow=classic;html=1;rounded=0;" edge="1" parent="1">
          <mxGeometry width="50" height="50" relative="1" as="geometry">
            <mxPoint x="287" y="160" as="sourcePoint" />
            <mxPoint x="320" y="420" as="targetPoint" />
            <Array as="points">
              <mxPoint x="317" y="210" />
              <mxPoint x="337" y="264" />
              <mxPoint x="337" y="340" />
            </Array>
          </mxGeometry>
        </mxCell>
        <mxCell id="ut37ZQ3Dius7RgOiMuSG-15" value="" style="curved=1;endArrow=classic;html=1;rounded=0;" edge="1" parent="1">
          <mxGeometry width="50" height="50" relative="1" as="geometry">
            <mxPoint x="540" y="160" as="sourcePoint" />
            <mxPoint x="510" y="420" as="targetPoint" />
            <Array as="points">
              <mxPoint x="510" y="230" />
              <mxPoint x="480" y="320" />
              <mxPoint x="480" y="380" />
            </Array>
          </mxGeometry>
        </mxCell>
      </root>
    </mxGraphModel>
  </diagram>
</mxfile>
